<?xml version="1.0" standalone="no"?>
<!DOCTYPE svg PUBLIC "-//W3C//DTD SVG 20010904//EN"
 "http://www.w3.org/TR/2001/REC-SVG-20010904/DTD/svg10.dtd">
<svg version="1.0" xmlns="http://www.w3.org/2000/svg"
 width="477.000000pt" height="523.000000pt" viewBox="0 0 477.000000 523.000000"
 preserveAspectRatio="xMidYMid meet">

<g transform="translate(0.000000,523.000000) scale(0.100000,-0.100000)"
fill="#000000" stroke="none">
<path d="M2083 5094 c-51 -19 -108 -80 -122 -131 -21 -76 25 -153 90 -153 36
0 44 14 25 42 -24 34 -19 63 15 92 35 30 47 31 93 12 44 -18 66 -52 66 -99 0
-53 -18 -81 -100 -162 -85 -82 -109 -129 -110 -206 0 -86 34 -143 147 -247 53
-48 101 -100 109 -117 13 -30 13 -30 14 23 0 42 -9 73 -45 151 -70 152 -62
193 60 321 92 97 114 142 115 231 0 185 -178 306 -357 243z"/>
<path d="M2796 4775 c-75 -27 -136 -115 -136 -197 0 -102 102 -198 210 -198
188 0 270 231 127 357 -58 51 -128 64 -201 38z m114 -100 c65 -34 77 -110 26
-161 -45 -45 -92 -47 -134 -4 -38 37 -45 75 -24 120 27 56 78 73 132 45z"/>
<path d="M1552 4709 c-144 -71 -131 -280 20 -344 54 -22 97 -19 159 13 75 38
101 84 97 173 -3 55 -9 73 -32 104 -55 72 -160 95 -244 54z m128 -84 c60 -31
70 -107 19 -149 -41 -35 -83 -34 -120 3 -45 45 -34 116 22 147 31 17 44 17 79
-1z"/>
<path d="M2320 4417 c0 -4 25 -42 55 -86 30 -44 59 -100 66 -123 45 -168 -93
-317 -327 -352 l-89 -13 80 -4 c111 -7 252 5 322 27 43 14 71 31 108 69 84 83
93 159 34 279 -16 33 -27 61 -25 63 6 6 44 -14 83 -44 38 -29 83 -114 83 -156
0 -55 -23 -109 -69 -159 -39 -44 -42 -50 -21 -43 38 11 102 50 127 77 80 85
67 223 -28 317 -57 56 -161 114 -234 129 -67 15 -165 26 -165 19z"/>
<path d="M1830 4223 c-227 -22 -465 -104 -555 -191 -64 -62 -78 -106 -83 -269
-11 -357 81 -638 284 -862 124 -137 330 -262 488 -298 44 -10 81 -23 83 -29 4
-12 -54 -34 -91 -34 -90 0 -247 69 -345 150 l-61 50 -102 -20 c-306 -62 -453
-144 -434 -244 4 -18 24 -53 45 -77 101 -115 338 -197 716 -251 138 -19 204
-22 485 -23 213 0 363 5 435 13 449 55 734 162 805 303 25 48 25 66 1 106 -37
59 -162 117 -341 157 -63 14 -138 28 -166 32 l-51 6 -63 -56 c-71 -64 -154
-107 -253 -132 -58 -14 -77 -15 -123 -5 -29 7 -56 16 -59 21 -3 5 27 16 67 25
89 20 152 46 246 103 80 48 222 177 276 251 32 43 40 48 107 64 82 20 214 79
286 128 157 108 287 286 314 432 23 127 -24 235 -126 286 -93 46 -226 28 -290
-39 -16 -17 -32 -30 -36 -30 -3 0 -10 28 -13 62 -9 80 -39 140 -90 184 -61 53
-192 111 -288 128 l-36 7 9 -38 c5 -21 9 -41 9 -45 0 -4 18 -12 41 -18 22 -6
57 -26 77 -44 74 -68 33 -151 -97 -199 -216 -80 -634 -115 -976 -82 -417 40
-614 145 -505 268 57 66 278 144 485 173 160 23 171 26 105 35 -57 7 -121 8
-180 2z m-467 -413 c213 -120 729 -180 1163 -135 274 29 444 68 567 132 37 20
70 34 72 31 2 -2 2 -21 -2 -42 -8 -48 -51 -77 -169 -111 -209 -61 -370 -83
-659 -91 -386 -12 -713 32 -940 127 -82 34 -90 40 -100 87 -8 40 0 41 68 2z
m2181 -101 c33 -15 50 -60 43 -111 -13 -97 -129 -258 -239 -331 -57 -38 -169
-88 -180 -81 -4 2 2 30 13 62 27 77 59 210 59 247 0 53 13 60 48 26 50 -50 99
-39 82 19 -13 45 2 99 37 132 53 49 89 58 137 37z m-2173 -40 c178 -73 560
-139 810 -139 l89 0 0 -29 c0 -28 -2 -30 -57 -37 -208 -26 -724 40 -878 112
-38 18 -40 21 -43 72 -2 28 -1 52 1 52 2 0 37 -14 78 -31z m46 -170 c153 -47
403 -78 688 -85 132 -3 251 -8 265 -10 24 -5 24 -6 5 -17 -22 -13 -524 -17
-630 -5 -93 10 -19 -9 104 -27 123 -18 465 -37 531 -30 45 6 82 -7 66 -22 -4
-4 -137 -8 -294 -8 -343 1 -482 19 -748 101 l-82 25 -11 44 c-13 54 -14 78 -2
70 5 -3 54 -19 108 -36z m-30 -140 c82 -31 275 -73 478 -104 119 -18 249 -26
430 -26 209 0 279 -9 199 -26 -21 -4 -178 -8 -349 -8 -342 1 -437 10 -660 66
-66 17 -121 32 -122 33 -1 1 -9 19 -18 39 -17 42 -10 46 42 26z m134 -143
c210 -54 433 -77 777 -83 162 -3 290 -9 285 -13 -34 -34 -555 -40 -799 -10
-158 19 -336 59 -373 82 -20 12 -46 58 -33 58 4 0 68 -16 143 -34z m25 -106
c266 -62 521 -85 853 -77 138 3 230 2 225 -3 -12 -12 -216 -37 -369 -45 -280
-16 -731 50 -802 117 -27 26 -30 43 -5 33 9 -3 53 -15 98 -25z m66 -110 c20
-6 99 -22 175 -36 122 -23 172 -26 441 -31 182 -3 300 -9 295 -14 -26 -26
-352 -38 -533 -19 -171 18 -427 75 -454 101 -13 12 30 12 76 -1z m-204 -450
c29 -38 118 -84 218 -110 323 -84 967 -82 1292 5 108 29 165 55 209 98 36 34
49 31 39 -7 -18 -70 -90 -114 -265 -157 -178 -44 -360 -62 -646 -62 -389 -1
-622 31 -770 106 -80 40 -114 78 -115 130 0 35 11 34 38 -3z"/>
<path d="M1809 4105 c-105 -38 -166 -89 -175 -146 -5 -28 -1 -41 20 -66 14
-17 40 -36 56 -42 30 -10 30 -10 15 12 -37 53 -7 124 69 162 83 42 171 28 217
-34 39 -53 99 -38 99 24 0 35 -37 77 -83 94 -39 15 -174 13 -218 -4z"/>
<path d="M2876 3960 c-20 -27 -40 -50 -45 -50 -12 0 -41 -29 -41 -41 0 -28
127 23 154 62 20 29 20 43 0 63 -23 24 -29 21 -68 -34z"/>
<path d="M461 2497 c-53 -14 -92 -58 -75 -85 17 -27 49 -26 68 2 13 21 24 26
61 26 90 0 155 -43 233 -154 145 -208 309 -313 543 -347 129 -19 414 -6 589
26 80 15 149 30 154 35 5 5 6 16 3 24 -9 22 -57 21 -224 -6 -109 -18 -179 -22
-333 -22 -184 0 -200 2 -285 28 -170 52 -256 116 -379 280 -47 63 -101 126
-118 139 -70 53 -163 74 -237 54z"/>
<path d="M4020 2501 c-98 -22 -150 -63 -256 -202 -122 -162 -221 -231 -400
-281 -69 -19 -104 -22 -284 -22 -169 -1 -228 3 -337 22 -133 23 -177 22 -187
-4 -8 -21 20 -31 155 -56 106 -19 159 -22 359 -23 270 0 314 8 465 80 109 52
199 131 284 248 95 132 142 165 242 174 53 5 60 3 82 -21 29 -31 52 -33 67 -6
31 58 -85 114 -190 91z"/>
<path d="M3944 2146 c-95 -43 -110 -173 -29 -245 49 -43 94 -49 152 -20 64 32
88 68 88 129 0 105 -116 179 -211 136z m100 -112 c30 -30 13 -74 -29 -74 -42
0 -59 44 -29 74 8 9 22 16 29 16 7 0 21 -7 29 -16z"/>
<path d="M714 1942 c-114 -40 -221 -135 -283 -251 -18 -35 -45 -113 -62 -179
-24 -100 -33 -121 -58 -142 l-30 -26 30 -30 c24 -25 35 -51 55 -130 50 -207
147 -340 302 -417 l86 -42 135 0 136 0 87 42 c66 31 89 47 92 65 3 13 13 61
22 108 9 47 22 100 30 119 30 72 11 80 -51 22 -63 -58 -119 -83 -198 -89 -89
-6 -143 15 -196 75 -59 67 -82 137 -88 268 -6 127 11 218 54 298 45 82 127
137 204 137 38 0 103 -38 123 -71 23 -39 23 -105 0 -130 -20 -22 -65 -25 -95
-6 -18 10 -23 9 -40 -12 -23 -28 -24 -49 -4 -78 36 -51 131 -50 194 3 96 80
73 275 -45 384 -74 68 -142 94 -254 98 -71 2 -108 -2 -146 -16z"/>
<path d="M3220 1848 c-45 -23 -77 -30 -160 -38 -120 -11 -412 -12 -543 -2 -49
4 -91 3 -94 -2 -3 -4 9 -20 27 -34 60 -47 60 -51 60 -502 0 -451 -2 -465 -59
-494 -16 -9 -37 -16 -45 -16 -20 0 -74 47 -91 80 -8 15 -42 133 -75 261 -33
129 -81 313 -106 409 -49 190 -50 221 -9 260 34 32 33 53 -2 43 -16 -4 -166
-8 -335 -8 -170 0 -308 -2 -308 -5 0 -3 14 -14 30 -24 54 -31 64 -57 56 -149
-8 -112 -52 -338 -67 -348 -6 -4 -40 -10 -75 -14 -69 -7 -82 -16 -58 -36 8 -7
27 -33 41 -57 21 -35 27 -59 27 -106 1 -129 -40 -241 -104 -284 -19 -13 -35
-28 -35 -33 0 -6 84 -11 213 -12 225 -2 251 4 176 39 -56 27 -78 85 -71 188 9
122 3 116 118 117 54 0 123 1 152 1 52 1 52 1 65 -37 7 -21 15 -70 18 -109 8
-90 -10 -139 -60 -162 -19 -9 -32 -22 -30 -28 5 -13 1047 -13 1051 1 1 4 -12
17 -29 28 -61 39 -72 73 -77 238 l-3 147 81 0 c96 0 138 -15 174 -61 14 -18
29 -31 32 -28 3 4 1 51 -4 106 -10 104 -2 225 18 260 24 47 5 44 -59 -6 -54
-43 -128 -65 -197 -59 l-38 3 -3 93 -3 92 171 0 170 0 39 -35 c21 -19 41 -35
44 -35 4 0 4 29 0 64 -7 78 12 216 38 275 10 24 19 45 19 47 0 9 -29 -1 -80
-28z m-1396 -360 c25 -79 46 -148 46 -154 0 -17 -35 -24 -118 -24 -65 0 -73 2
-68 18 3 9 17 64 31 122 42 168 45 180 54 180 5 0 29 -64 55 -142z"/>
<path d="M4193 1860 c-80 -48 -130 -55 -433 -55 -157 0 -309 4 -337 8 -43 6
-53 5 -53 -7 0 -7 12 -21 26 -31 14 -9 35 -38 47 -63 18 -40 22 -66 22 -177 0
-149 -12 -195 -51 -195 -29 0 -31 -15 -4 -30 11 -6 28 -25 37 -43 15 -27 18
-59 18 -212 0 -211 -8 -243 -66 -282 -22 -14 -37 -28 -35 -31 3 -2 165 -4 361
-3 l356 2 35 -35 c20 -20 39 -34 43 -31 5 2 11 42 14 87 8 112 33 231 63 297
35 77 18 83 -53 19 -84 -74 -134 -90 -287 -92 l-121 -1 0 85 0 85 55 3 c92 5
137 -6 180 -44 21 -19 41 -31 44 -25 3 5 1 32 -4 61 -14 74 -12 196 4 258 7
30 9 55 4 58 -5 3 -29 -13 -54 -35 -56 -53 -79 -61 -165 -61 l-69 0 0 95 0 95
160 0 160 0 45 -41 c25 -23 46 -38 46 -33 1 5 1 47 -1 94 -2 93 20 219 46 257
22 35 5 47 -33 23z"/>
<path d="M3047 628 c-27 -27 -35 -48 -19 -48 15 0 54 48 50 62 -3 8 -13 4 -31
-14z"/>
<path d="M3087 607 c-9 -13 -29 -30 -46 -37 -28 -11 -42 -30 -23 -30 28 0 83
24 92 40 24 45 4 68 -23 27z"/>
<path d="M1275 598 c-11 -7 -36 -17 -55 -24 -44 -15 -46 -38 -4 -42 34 -3 94
38 94 64 0 17 -8 17 -35 2z"/>
<path d="M3118 543 c-21 -5 -24 -23 -5 -23 7 0 22 7 33 15 20 15 9 18 -28 8z"/>
<path d="M2751 507 c-18 -23 -80 -161 -75 -169 9 -13 34 -9 40 7 4 10 20 15
44 15 24 0 40 -5 44 -15 6 -16 46 -21 46 -6 0 11 -79 181 -84 181 -2 0 -9 -6
-15 -13z m23 -83 c9 -23 8 -24 -14 -24 -11 0 -20 2 -20 4 0 12 13 36 20 36 4
0 11 -7 14 -16z"/>
<path d="M905 498 c-3 -8 -5 -48 -3 -89 l3 -74 39 -3 c58 -5 84 5 101 38 36
71 1 129 -83 138 -40 3 -53 1 -57 -10z m99 -44 c34 -33 7 -98 -38 -92 -18 3
-21 11 -24 56 -3 50 -2 52 22 52 13 0 32 -7 40 -16z"/>
<path d="M1177 503 c-4 -3 -7 -44 -7 -90 0 -59 4 -83 13 -84 43 -5 122 4 129
14 5 9 -7 13 -47 15 -40 2 -55 7 -55 17 0 10 10 15 30 15 23 0 30 4 30 20 0
16 -7 20 -30 20 -23 0 -30 4 -30 20 0 17 7 20 50 20 43 0 50 3 50 20 0 18 -7
20 -63 20 -35 0 -67 -3 -70 -7z"/>
<path d="M1567 504 c-4 -4 -7 -45 -7 -91 l0 -83 65 0 c50 0 65 3 65 14 0 10
-14 16 -42 18 l-43 3 -5 69 c-5 64 -16 87 -33 70z"/>
<path d="M1817 428 c-21 -46 -37 -86 -37 -90 0 -14 37 -8 50 7 7 8 25 15 40
15 15 0 33 -7 40 -15 13 -15 50 -21 50 -7 0 21 -82 172 -93 172 -8 0 -30 -37
-50 -82z m73 -19 c0 -5 -9 -9 -20 -9 -22 0 -23 1 -14 24 5 13 9 14 20 5 8 -6
14 -15 14 -20z"/>
<path d="M2079 498 c-22 -17 -31 -49 -19 -68 5 -8 24 -20 42 -26 18 -6 33 -17
33 -25 0 -15 -16 -16 -53 -5 -21 7 -23 5 -20 -15 7 -51 111 -45 124 7 8 30 -9
51 -53 69 -45 19 -44 39 2 31 27 -5 37 -3 41 9 9 21 2 26 -43 32 -23 3 -44 -1
-54 -9z"/>
<path d="M2400 421 c0 -50 4 -92 9 -95 18 -11 32 22 25 58 -7 41 0 45 32 15
l23 -21 13 21 c19 31 26 26 30 -21 2 -31 8 -44 21 -46 15 -3 17 6 17 87 0 104
-10 114 -59 60 l-28 -31 -22 31 c-12 17 -31 31 -42 31 -17 0 -19 -8 -19 -89z"/>
<path d="M2952 418 c2 -75 6 -93 18 -93 11 0 16 14 20 48 l5 48 45 -45 c24
-26 47 -46 51 -46 11 0 20 98 13 135 -9 49 -32 45 -36 -6 l-3 -42 -51 47 c-29
25 -55 46 -58 46 -4 0 -5 -42 -4 -92z"/>
<path d="M3246 429 c-20 -44 -36 -85 -36 -90 0 -15 37 -10 44 6 7 20 65 19 87
-1 10 -9 25 -14 33 -11 12 5 7 22 -27 92 -23 47 -46 85 -53 85 -6 0 -28 -36
-48 -81z m64 -14 c0 -8 -7 -15 -15 -15 -16 0 -20 12 -8 23 11 12 23 8 23 -8z"/>
<path d="M3490 420 c0 -83 1 -90 20 -90 17 0 20 7 20 47 l0 47 50 -49 c62 -61
70 -54 70 58 0 70 -2 77 -20 77 -17 0 -20 -7 -20 -40 0 -22 -4 -40 -8 -40 -4
0 -26 18 -47 40 -59 60 -65 55 -65 -50z"/>
<path d="M520 475 c0 -8 11 -17 25 -21 31 -8 212 -1 221 8 19 20 -16 28 -127
28 -98 0 -119 -3 -119 -15z"/>
<path d="M3892 473 c3 -15 17 -18 96 -21 89 -3 139 8 127 29 -4 5 -56 9 -116
9 -100 0 -110 -2 -107 -17z"/>
<path d="M530 410 c-34 -21 7 -31 121 -28 93 2 114 6 114 18 0 12 -20 15 -110
18 -60 1 -117 -2 -125 -8z"/>
<path d="M3901 411 c-32 -21 3 -31 105 -31 95 0 105 2 102 18 -3 14 -17 17
-98 20 -52 1 -101 -2 -109 -7z"/>
</g>
</svg>
